Coordinates
version=1
nRows=9
nColumns=24
inDegrees=yes

Units are S.I. units (second, meters, Newtons, ...)
Angles are in degrees.

endheader
time	pelvis_tilt	pelvis_list	pelvis_rotation	pelvis_tx	pelvis_ty	pelvis_tz	hip_flexion_r	hip_adduction_r	hip_rotation_r	knee_angle_r	ankle_angle_r	subtalar_angle_r	mtp_angle_r	hip_flexion_l	hip_adduction_l	hip_rotation_l	knee_angle_l	ankle_angle_l	subtalar_angle_l	mtp_angle_l	lumbar_extension	lumbar_bending	lumbar_rotation
      4.42500000	     14.99537221	      9.27707325	     15.58117415	     -0.18514488	      0.72950975	     -0.27102423	     10.96681239	    -12.08912921	    -13.78478630	    -11.40921006	     17.90423978	     13.09554560	      0.00000000	    -36.82998999	      0.65990400	      8.57804154	    -17.04092266	     29.69133185	     20.80519431	      0.00000000	    -33.11646127	     -1.17795580	    -18.49536266
      4.43000000	     15.06015174	      8.74129846	     15.61141141	     -0.17656813	      0.72951055	     -0.27032622	     10.99146847	    -11.32454869	    -13.47773958	    -12.39444505	     17.51430561	     12.12775379	      0.00000000	    -36.64960151	      0.02318433	      8.47797561	    -18.44146531	     28.81171685	     20.56308564	      0.00000000	    -32.84055405	     -0.71280309	    -18.34531633
      4.43500000	     15.10863913	      8.17183903	     15.57213896	     -0.16794891	      0.72957536	     -0.26955889	     11.05948132	    -10.50639384	    -13.02021741	    -13.44269467	     17.12980177	     11.06019227	      0.00000000	    -36.39809082	     -0.58103138	      8.30727560	    -19.91490507	     27.74750518	     20.31149569	      0.00000000	    -32.53264700	     -0.25717807	    -18.12541639
      4.44000000	     15.14758623	      7.57724679	     15.50690194	     -0.15933179	      0.72972658	     -0.26875871	     11.14087078	     -9.65944582	    -12.55624927	    -14.52850620	     16.76183282	     10.04921617	      0.00000000	    -36.06513060	     -1.16915078	      8.13851533	    -21.48895504	     26.52075797	     19.99208748	      0.00000000	    -32.20966358	      0.21119619	    -17.89484885
      4.44500000	     15.17858305	      6.95497565	     15.42113278	     -0.15074483	      0.72995390	     -0.26794787	     11.23038856	     -8.78342482	    -12.09619580	    -15.63585343	     16.41030605	      9.11370579	      0.00000000	    -35.64579018	     -1.74172150	      7.96194056	    -23.16962550	     25.18341919	     19.55447445	      0.00000000	    -31.87537468	      0.69973643	    -17.66773554
      4.45000000	     15.19543550	      6.31387172	     15.31230996	     -0.14219300	      0.73026138	     -0.26711212	     11.31830992	     -7.88459547	    -11.63670694	    -16.72352404	     16.09440652	      8.26619163	      0.00000000	    -35.13796546	     -2.29487759	      7.76899750	    -24.94091803	     23.70670298	     19.03579511	      0.00000000	    -31.53118396	      1.19687551	    -17.43853000
      4.45500000	     15.19730497	      5.66012804	     15.18854244	     -0.13368284	      0.73064833	     -0.26625510	     11.38943747	     -6.96914705	    -11.19183140	    -17.75901847	     15.83004744	      7.52153705	      0.00000000	    -34.54020606	     -2.83062765	      7.56618726	    -26.79660125	     22.08877726	     18.43626897	      0.00000000	    -31.17686407	      1.69817143	    -17.21801018
      4.46000000	     15.18278992	      4.99910704	     15.05527668	     -0.12523066	      0.73111443	     -0.26538485	     11.43373601	     -6.04518419	    -10.77803526	    -18.71662249	     15.62801356	      6.89615127	      0.00000000	    -33.85156229	     -3.34911281	      7.35973552	    -28.72600613	     20.34603417	     17.75406151	      0.00000000	    -30.81570495	      2.20202115	    -17.00990150
      4.46500000	     15.21471505	      4.31147649	     14.93701230	     -0.11682054	      0.73171806	     -0.26458547	     11.35539028	     -5.10520567	    -10.55537358	    -19.54416301	     15.51910834	      6.64580795	      0.00000000	    -33.15033504	     -3.89418504	      7.17011347	    -30.69075856	     18.50216521	     16.96588220	      0.00000000	    -30.50508359	      2.76508649	    -16.79156226
